<?xml version="1.0" encoding="UTF-8" standalone="no"?>
<svg
   xmlns:dc="http://purl.org/dc/elements/1.1/"
   xmlns:cc="http://creativecommons.org/ns#"
   xmlns:rdf="http://www.w3.org/1999/02/22-rdf-syntax-ns#"
   xmlns:svg="http://www.w3.org/2000/svg"
   xmlns="http://www.w3.org/2000/svg"
   xmlns:sodipodi="http://sodipodi.sourceforge.net/DTD/sodipodi-0.dtd"
   xmlns:inkscape="http://www.inkscape.org/namespaces/inkscape"
   height="64"
   width="64"
   version="1.1"
   viewBox="0 0 64 64"
   id="svg2"
   inkscape:version="0.91 r13725"
   sodipodi:docname="listing.svg">
  <metadata
     id="metadata12">
    <rdf:RDF>
      <cc:Work
         rdf:about="">
        <dc:format>image/svg+xml</dc:format>
        <dc:type
           rdf:resource="http://purl.org/dc/dcmitype/StillImage" />
        <dc:title />
      </cc:Work>
    </rdf:RDF>
  </metadata>
  <defs
     id="defs10" />
  <sodipodi:namedview
     pagecolor="#b5b5b5"
     bordercolor="#666666"
     borderopacity="1"
     objecttolerance="10"
     gridtolerance="10"
     guidetolerance="10"
     inkscape:pageopacity="0"
     inkscape:pageshadow="2"
     inkscape:window-width="1871"
     inkscape:window-height="1056"
     id="namedview8"
     showgrid="false"
     inkscape:zoom="2.28"
     inkscape:cx="-57.548618"
     inkscape:cy="33.898305"
     inkscape:window-x="49"
     inkscape:window-y="24"
     inkscape:window-maximized="1"
     inkscape:current-layer="svg2" />
  <path
     inkscape:connector-curvature="0"
     d="m 19.884618,52.596152 0,-7.269226 q 0,-0.530046 -0.340752,-0.870797 -0.340741,-0.340742 -0.870788,-0.340742 l -12.1153819,0 q -0.5300564,0 -0.8707978,0.340742 -0.3407414,0.340751 -0.3407414,0.870797 l 0,7.269226 q 0,0.530056 0.3407414,0.870798 0.3407414,0.340741 0.8707978,0.340741 l 12.1153819,0 q 0.530047,0 0.870788,-0.340741 0.340752,-0.340742 0.340752,-0.870798 z m 0,-14.538461 0,-7.269225 q 0,-0.530047 -0.340752,-0.870798 -0.340741,-0.340742 -0.870788,-0.340742 l -12.1153819,0 q -0.5300564,0 -0.8707978,0.340742 -0.3407414,0.340751 -0.3407414,0.870798 l 0,7.269225 q 0,0.530047 0.3407414,0.870798 0.3407414,0.340741 0.8707978,0.340741 l 12.1153819,0 q 0.530047,0 0.870788,-0.340741 0.340752,-0.340751 0.340752,-0.870798 z m 19.384617,14.538461 0,-7.269226 q 0,-0.530046 -0.340751,-0.870797 -0.340741,-0.340742 -0.870788,-0.340742 l -12.115392,0 q -0.530047,0 -0.870788,0.340742 -0.340751,0.340751 -0.340751,0.870797 l 0,7.269226 q 0,0.530056 0.340751,0.870798 0.340741,0.340741 0.870788,0.340741 l 12.115392,0 q 0.530047,0 0.870788,-0.340741 0.340751,-0.340742 0.340751,-0.870798 z M 19.884618,23.51923 l 0,-7.269225 q 0,-0.530047 -0.340752,-0.870798 -0.340741,-0.340741 -0.870788,-0.340741 l -12.1153819,0 q -0.5300564,0 -0.8707978,0.340741 -0.3407414,0.340751 -0.3407414,0.870798 l 0,7.269225 q 0,0.530047 0.3407414,0.870798 0.3407414,0.340742 0.8707978,0.340742 l 12.1153819,0 q 0.530047,0 0.870788,-0.340742 0.340752,-0.340751 0.340752,-0.870798 z m 19.384617,14.538461 0,-7.269225 q 0,-0.530047 -0.340751,-0.870798 -0.340741,-0.340742 -0.870788,-0.340742 l -12.115392,0 q -0.530047,0 -0.870788,0.340742 -0.340751,0.340751 -0.340751,0.870798 l 0,7.269225 q 0,0.530047 0.340751,0.870798 0.340741,0.340741 0.870788,0.340741 l 12.115392,0 q 0.530047,0 0.870788,-0.340741 0.340751,-0.340751 0.340751,-0.870798 z m 19.384608,14.538461 0,-7.269226 q 0,-0.530046 -0.340741,-0.870797 -0.340742,-0.340742 -0.870798,-0.340742 l -12.115382,0 q -0.530047,0 -0.870788,0.340742 -0.340752,0.340751 -0.340752,0.870797 l 0,7.269226 q 0,0.530056 0.340752,0.870798 0.340741,0.340741 0.870788,0.340741 l 12.115382,0 q 0.530056,0 0.870798,-0.340741 0.340741,-0.340742 0.340741,-0.870798 z M 39.269235,23.51923 l 0,-7.269225 q 0,-0.530047 -0.340751,-0.870798 -0.340741,-0.340741 -0.870788,-0.340741 l -12.115392,0 q -0.530047,0 -0.870788,0.340741 -0.340751,0.340751 -0.340751,0.870798 l 0,7.269225 q 0,0.530047 0.340751,0.870798 0.340741,0.340742 0.870788,0.340742 l 12.115392,0 q 0.530047,0 0.870788,-0.340742 0.340751,-0.340751 0.340751,-0.870798 z m 19.384608,14.538461 0,-7.269225 q 0,-0.530047 -0.340741,-0.870798 -0.340742,-0.340742 -0.870798,-0.340742 l -12.115382,0 q -0.530047,0 -0.870788,0.340742 -0.340752,0.340751 -0.340752,0.870798 l 0,7.269225 q 0,0.530047 0.340752,0.870798 0.340741,0.340741 0.870788,0.340741 l 12.115382,0 q 0.530056,0 0.870798,-0.340741 0.340741,-0.340751 0.340741,-0.870798 z m 0,-14.538461 0,-7.269225 q 0,-0.530047 -0.340741,-0.870798 -0.340742,-0.340741 -0.870798,-0.340741 l -12.115382,0 q -0.530047,0 -0.870788,0.340741 -0.340752,0.340751 -0.340752,0.870798 l 0,7.269225 q 0,0.530047 0.340752,0.870798 0.340741,0.340742 0.870788,0.340742 l 12.115382,0 q 0.530056,0 0.870798,-0.340742 0.340741,-0.340751 0.340741,-0.870798 z M 63.5,11.403848 l 0,41.192304 q 0,2.498806 -1.779445,4.278251 -1.779445,1.779445 -4.278251,1.779445 l -50.8846079,0 q -2.4988064,0 -4.2782513,-1.779445 Q 0.5,55.094958 0.5,52.596152 l 0,-41.192304 Q 0.5,8.9050515 2.2794448,7.1256067 4.0588897,5.346152 6.5576961,5.346152 l 50.8846079,0 q 2.498806,0 4.278251,1.7794547 Q 63.5,8.9050515 63.5,11.403848 Z"
     id="path4" />
</svg>
