<?xml version="1.0" encoding="UTF-8" standalone="no"?>
<svg
   xmlns:dc="http://purl.org/dc/elements/1.1/"
   xmlns:cc="http://creativecommons.org/ns#"
   xmlns:rdf="http://www.w3.org/1999/02/22-rdf-syntax-ns#"
   xmlns:svg="http://www.w3.org/2000/svg"
   xmlns="http://www.w3.org/2000/svg"
   xmlns:sodipodi="http://sodipodi.sourceforge.net/DTD/sodipodi-0.dtd"
   xmlns:inkscape="http://www.inkscape.org/namespaces/inkscape"
   height="64"
   width="64"
   version="1.1"
   viewBox="0 0 64 64"
   id="svg2"
   inkscape:version="0.91 r13725"
   sodipodi:docname="logo.svg">
  <metadata
     id="metadata12">
    <rdf:RDF>
      <cc:Work
         rdf:about="">
        <dc:format>image/svg+xml</dc:format>
        <dc:type
           rdf:resource="http://purl.org/dc/dcmitype/StillImage" />
        <dc:title></dc:title>
      </cc:Work>
    </rdf:RDF>
  </metadata>
  <defs
     id="defs10" />
  <sodipodi:namedview
     pagecolor="#b5b5b5"
     bordercolor="#666666"
     borderopacity="1"
     objecttolerance="10"
     gridtolerance="10"
     guidetolerance="10"
     inkscape:pageopacity="0"
     inkscape:pageshadow="2"
     inkscape:window-width="1096"
     inkscape:window-height="703"
     id="namedview8"
     showgrid="false"
     inkscape:zoom="3.6875"
     inkscape:cx="32"
     inkscape:cy="32"
     inkscape:window-x="456"
     inkscape:window-y="94"
     inkscape:window-maximized="0"
     inkscape:current-layer="svg2" />
  <g
     id="g4"
     transform="matrix(0.984375,0,0,0.984375,0.5,0.51771875)">
    <path
       style="fill:#ffffff"
       d="m 33,-0.018 0,5.6 -2,0 0,-5.6 c -17,0.59 -30,14 -31,31 l 5.6,0 0,2 -5.6,0 c 0.64,17 14,30 31,31 l 0,-6 2,0 0,6 16,0 9,0 c 3,0 6,-3 6,-6 l 0,-6 0,-1 0,-18 -6,0 0,-2 6,0 c -1,-17 -14,-30 -31,-31 z m 20,11 -18,23 -5,-5 23,-18 z m -24,19 5,5 -23,18 18,-23 z m 11,9 18,0 c 1,0 1,1 1,1 l 0,4 -1,0 -18,0 -1,0 0,-4 1,-1 z m 0,8 18,0 c 1,0 1,1 1,1 l 0,4 -1,0 -18,0 -1,0 0,-4 1,-1 z m 0,8 18,0 c 1,0 1,1 1,1 l 0,4 -1,0 -18,0 -1,0 0,-4 1,-1 z"
       id="path6"
       inkscape:connector-curvature="0" />
  </g>
</svg>
