<?xml version="1.0" encoding="UTF-8" standalone="no"?>
<svg
   xmlns:dc="http://purl.org/dc/elements/1.1/"
   xmlns:cc="http://creativecommons.org/ns#"
   xmlns:rdf="http://www.w3.org/1999/02/22-rdf-syntax-ns#"
   xmlns:svg="http://www.w3.org/2000/svg"
   xmlns="http://www.w3.org/2000/svg"
   xmlns:sodipodi="http://sodipodi.sourceforge.net/DTD/sodipodi-0.dtd"
   xmlns:inkscape="http://www.inkscape.org/namespaces/inkscape"
   height="64"
   width="64"
   version="1.1"
   viewBox="0 0 64 64"
   id="svg2"
   inkscape:version="0.91 r13725"
   sodipodi:docname="race.svg">
  <metadata
     id="metadata12">
    <rdf:RDF>
      <cc:Work
         rdf:about="">
        <dc:format>image/svg+xml</dc:format>
        <dc:type
           rdf:resource="http://purl.org/dc/dcmitype/StillImage" />
        <dc:title />
      </cc:Work>
    </rdf:RDF>
  </metadata>
  <defs
     id="defs10" />
  <sodipodi:namedview
     pagecolor="#b5b5b5"
     bordercolor="#666666"
     borderopacity="1"
     objecttolerance="10"
     gridtolerance="10"
     guidetolerance="10"
     inkscape:pageopacity="0"
     inkscape:pageshadow="2"
     inkscape:window-width="1871"
     inkscape:window-height="1056"
     id="namedview8"
     showgrid="false"
     inkscape:zoom="3.6875"
     inkscape:cx="60.881356"
     inkscape:cy="36.338983"
     inkscape:window-x="49"
     inkscape:window-y="24"
     inkscape:window-maximized="1"
     inkscape:current-layer="svg2" />
  <path
     style="fill:#000000"
     d="M 1.1961624,58.305324 C 0.65786484,57.766674 0.4935953,52.737434 0.50018962,36.997626 0.50491462,25.666179 0.69517954,16.118359 0.9229521,15.780249 1.8079505,14.466539 16.977343,4.7721914 17.70879,5.0528741 c 0.426137,0.1635244 3.829,2.3435045 7.561919,4.8444016 l 6.787123,4.5470853 6.787124,-4.5470853 c 3.73292,-2.5008971 7.135786,-4.6808772 7.561922,-4.8444016 0.729983,-0.2801187 15.892114,9.4073329 16.789746,10.7273749 0.229911,0.33811 0.356747,9.97251 0.281836,21.409778 -0.122968,18.777042 -0.228148,20.85303 -1.083875,21.392645 -0.766976,0.483653 -2.353119,-0.338635 -8.318116,-4.312202 l -7.370429,-4.909797 -7.047454,4.796219 c -3.876101,2.637919 -7.325862,4.79621 -7.666141,4.79621 -0.340279,0 -3.763297,-2.160447 -7.606706,-4.800984 l -6.988016,-4.800993 -6.863983,4.598576 c -7.5135416,5.033759 -8.2954139,5.39847 -9.3375776,4.355623 z m 9.3640036,-9.498528 4.550201,-3.100259 0.01849,-17.084694 c 0.01461,-13.512955 -0.128831,-16.999663 -0.68613,-16.677969 -0.387532,0.223699 -2.67045,1.778086 -5.0731525,3.454194 l -4.3685469,3.047468 0,16.918654 c 0,9.719343 0.2146637,16.838698 0.5044696,16.730762 0.2774579,-0.10335 2.552059,-1.583013 5.0546708,-3.288156 z M 8.4658494,31.395661 c -0.5897863,-0.37373 -0.6197999,-0.750568 -0.1323217,-1.661429 0.7070136,-1.321067 2.5727103,-1.041418 2.0548873,0.308008 -0.172831,0.450389 -0.314239,1.0518 -0.314239,1.336468 0,0.643062 -0.6101143,0.649492 -1.6083266,0.01695 z M 11.233862,27.14392 c -0.509881,-0.614369 -0.381509,-0.970774 0.596356,-1.655697 1.349908,-0.945513 2.189744,-0.752663 2.189744,0.502825 0,1.260079 -2.007659,2.090836 -2.7861,1.152872 z m 18.52474,16.166962 c -0.02446,-4.882909 -0.168085,-8.574027 -0.31913,-8.202483 -0.203727,0.501144 -0.617267,0.519413 -1.601938,0.07077 -1.755818,-0.800007 -1.233238,-2.373197 0.632757,-1.904861 l 1.332808,0.334514 0,-7.580909 0,-7.58091 -4.932229,-3.43298 -4.932231,-3.432981 -0.158485,7.154165 c -0.10818,4.883366 0.04448,7.279605 0.48096,7.549363 0.469898,0.290413 0.474555,0.703299 0.01756,1.557195 -0.375347,0.701344 -0.615844,4.472752 -0.606654,9.513385 l 0.01523,8.351389 4.635162,3.217317 c 2.549341,1.769524 4.825405,3.228053 5.057924,3.241174 0.232521,0.01319 0.402742,-3.971238 0.37826,-8.854146 z M 22.828398,31.411439 c -0.794257,-0.877644 -0.821601,-1.147222 -0.171125,-1.687069 0.596373,-0.494947 0.991297,-0.402609 1.719492,0.402038 0.794258,0.877644 0.821601,1.147222 0.171125,1.687069 -0.596373,0.494947 -0.991296,0.402609 -1.719492,-0.402038 z m 17.043311,17.395357 4.550197,-3.100259 0.01851,-7.502074 c 0.01044,-4.223834 -0.199926,-7.36709 -0.481337,-7.193171 -0.274896,0.169896 -0.837399,-0.09787 -1.25,-0.595024 -0.640035,-0.771195 -0.564339,-1.054421 0.51552,-1.928838 1.218623,-0.986785 1.259878,-1.321262 1.109081,-8.990929 l -0.156624,-7.966016 -4.791311,3.321702 -4.791314,3.321699 -0.156394,7.988569 c -0.101683,5.193722 0.04623,7.988569 0.422762,7.988569 0.318538,0 0.579158,0.507316 0.579158,1.127368 0,0.620051 -0.253659,1.127367 -0.563684,1.127367 -0.349107,0 -0.563684,3.02197 -0.563684,7.938542 0,4.435323 0.222621,7.855624 0.504469,7.750651 0.277462,-0.10335 2.55206,-1.583013 5.054676,-3.288156 z M 38.337185,34.298328 c -0.781239,-1.459762 1.152936,-2.789107 2.208159,-1.517647 0.380636,0.458648 0.592521,0.899551 0.470828,0.979787 -0.121685,0.08024 -0.647448,0.470969 -1.168383,0.868298 -0.796212,0.607303 -1.036911,0.554651 -1.510604,-0.330438 z m 20.644798,0.86304 -0.149182,-17.027528 -3.382106,-2.376532 c -1.860153,-1.307093 -4.079653,-2.790718 -4.93222,-3.296947 l -1.550135,-0.920413 0,6.265653 c 0,3.544635 0.219142,6.130216 0.50462,5.953783 0.277545,-0.171529 0.668322,0.114729 0.868396,0.636129 0.220038,0.573401 0.02067,1.140033 -0.50462,1.43398 -0.73081,0.408985 -0.865325,2.0221 -0.848984,10.181512 l 0.01939,9.695532 4.630963,3.181143 c 2.547041,1.749629 4.824933,3.208158 5.062,3.241183 0.237067,0.03298 0.363894,-7.602354 0.281847,-16.967495 z m -6.505399,-7.87387 c -0.484145,-0.48416 -0.495948,-0.864299 -0.04371,-1.409209 0.450952,-0.543361 0.44541,-0.955709 -0.02038,-1.516937 -0.896549,-1.080279 0.716556,-2.475155 1.811496,-1.56643 0.543444,0.451017 0.919869,0.44563 1.385331,-0.01983 0.971469,-0.971482 2.629334,0.529368 1.752187,1.586256 -0.477077,0.574852 -0.477077,0.966623 0,1.541473 0.929565,1.120062 -0.719795,2.472467 -1.860636,1.525647 -0.5437,-0.451234 -0.910921,-0.473071 -1.160637,-0.06902 -0.47564,0.769613 -1.044038,0.747668 -1.863658,-0.07196 z"
     id="path4157"
     inkscape:connector-curvature="0" />
</svg>
