<?xml version="1.0" encoding="UTF-8" standalone="no"?>
<svg
   xmlns:dc="http://purl.org/dc/elements/1.1/"
   xmlns:cc="http://creativecommons.org/ns#"
   xmlns:rdf="http://www.w3.org/1999/02/22-rdf-syntax-ns#"
   xmlns:svg="http://www.w3.org/2000/svg"
   xmlns="http://www.w3.org/2000/svg"
   xmlns:sodipodi="http://sodipodi.sourceforge.net/DTD/sodipodi-0.dtd"
   xmlns:inkscape="http://www.inkscape.org/namespaces/inkscape"
   height="64"
   width="64"
   version="1.1"
   viewBox="0 0 64 64"
   id="svg2"
   inkscape:version="0.91 r13725"
   sodipodi:docname="register.svg">
  <metadata
     id="metadata12">
    <rdf:RDF>
      <cc:Work
         rdf:about="">
        <dc:format>image/svg+xml</dc:format>
        <dc:type
           rdf:resource="http://purl.org/dc/dcmitype/StillImage" />
        <dc:title />
      </cc:Work>
    </rdf:RDF>
  </metadata>
  <defs
     id="defs10" />
  <sodipodi:namedview
     pagecolor="#b5b5b5"
     bordercolor="#666666"
     borderopacity="1"
     objecttolerance="10"
     gridtolerance="10"
     guidetolerance="10"
     inkscape:pageopacity="0"
     inkscape:pageshadow="2"
     inkscape:window-width="1096"
     inkscape:window-height="703"
     id="namedview8"
     showgrid="false"
     inkscape:zoom="3.6875"
     inkscape:cx="21.288135"
     inkscape:cy="24.406779"
     inkscape:window-x="390"
     inkscape:window-y="40"
     inkscape:window-maximized="0"
     inkscape:current-layer="svg2" />
  <path
     style="fill:#000000;fill-opacity:1;stroke:none;stroke-width:15.16535473;stroke-linecap:round;stroke-miterlimit:4;stroke-dasharray:none;stroke-opacity:1"
     d="M 44.916651,27.287054 A 17.355816,17.355816 0 0 0 27.560178,44.643528 17.355816,17.355816 0 0 0 44.916651,62 17.355816,17.355816 0 0 0 62.271187,44.643528 17.355816,17.355816 0 0 0 44.916651,27.287054 Z m -2.751919,4.036796 5.505777,0 0,10.835199 10.835199,0 0,5.505777 -10.835199,0 0,10.837136 -5.505777,0 0,-10.837136 -10.837137,0 0,-5.505777 10.837137,0 0,-10.835199 z"
     id="path4171"
     inkscape:connector-curvature="0" />
  <path
     inkscape:connector-curvature="0"
     style="fill:#000000"
     d="m 28.389856,1.2576066 c -2.596344,0.13936 -4.764242,2.728828 -3.983586,5.51705 0.359056,1.282431 1.648694,2.693889 2.755237,3.013007 2.309872,0.6661494 4.43704,-0.257142 5.400002,-2.343596 1.043231,-2.260378 -0.0048,-4.888453 -2.33702,-5.862935 -0.613721,-0.256429 -1.235477,-0.355686 -1.834633,-0.323526 z m -9.888605,7.097859 c -2.522425,0.03902 -5.205824,0.248225 -5.848468,0.593133 -0.372142,0.19973 -1.821647,1.4599304 -3.2207997,2.8012674 -2.432772,2.332243 -2.544405,2.479425 -2.542183,3.364151 0.0026,1.03655 0.433658,1.569016 1.520312,1.880663 0.63536,0.182218 0.831735,0.05464 3.3102297,-2.152898 l 2.634244,-2.347541 1.465075,0 c 0.805843,0 1.465077,0.08256 1.465077,0.182805 0,0.53404 -7.099284,17.409404 -7.6002467,18.066202 -1.018232,1.33497 -4.034244,3.054157 -7.331955,4.179544 -0.198132,0.06762 -0.490399,0.588406 -0.649684,1.157331 -0.4794705,1.712487 0.375163,3.073503 1.929324,3.073503 1.81301,0 5.925816,-2.010878 8.6878737,-4.246616 l 1.871457,-1.515051 1.133659,-2.880176 c 0.623423,-1.584259 1.211005,-2.880178 1.305943,-2.880178 0.09494,0 1.424997,0.983564 2.955139,2.187094 1.530142,1.203529 2.80609,2.202025 2.835462,2.218656 0.02937,0.01662 -0.595848,1.970812 -1.388797,4.342622 -1.432952,4.286143 -1.439622,4.316306 -1.042913,4.968633 0.219523,0.360987 0.742793,0.825578 1.162591,1.032393 1.065773,0.52503 1.635848,0.478623 2.442232,-0.199904 1.390053,-1.169647 3.122648,-5.782025 3.644278,-9.701854 l 0.259084,-1.942475 -2.621092,-2.489577 c -1.441758,-1.368994 -2.622407,-2.599443 -2.622407,-2.734195 0,-0.134745 0.973526,-2.44878 2.16342,-5.142233 l 1.774136,-4.015149 2.171311,1.942474 3.545642,-0.103897 c 1.237137,-0.03598 2.072503,-0.07411 2.676329,-0.144666 l 5.138286,1.234925 2.096348,-8.726014 -6.127279,-1.4729674 -1.316464,5.4736514 c -0.389179,0.01242 -0.875048,0.04825 -1.659719,0.127569 l -2.454067,0.248563 -1.501901,-1.141549 c -0.85274,-0.646863 -1.348486,-1.346723 -1.695227,-1.999026 l 0,-0.09601 c -0.02529,-0.01047 -0.04481,-0.01978 -0.0697,-0.03025 -0.01115,-0.02198 -0.02601,-0.04523 -0.03683,-0.06707 l -0.03288,0.03682 c -0.506842,-0.215874 -0.944077,-0.426793 -1.32041,-0.531319 -0.840222,-0.233372 -2.221286,-1.5551724 -2.221286,-2.1252814 0,-0.334968 -2.360724,-0.46513 -4.883149,-0.426109 z"
     id="path4170" />
</svg>
