<?xml version="1.0" encoding="UTF-8" standalone="no"?>
<svg
   xmlns:dc="http://purl.org/dc/elements/1.1/"
   xmlns:cc="http://creativecommons.org/ns#"
   xmlns:rdf="http://www.w3.org/1999/02/22-rdf-syntax-ns#"
   xmlns:svg="http://www.w3.org/2000/svg"
   xmlns="http://www.w3.org/2000/svg"
   xmlns:sodipodi="http://sodipodi.sourceforge.net/DTD/sodipodi-0.dtd"
   xmlns:inkscape="http://www.inkscape.org/namespaces/inkscape"
   height="64"
   width="64"
   version="1.1"
   viewBox="0 0 64 64"
   id="svg2"
   inkscape:version="0.91 r13725"
   sodipodi:docname="runner.svg">
  <metadata
     id="metadata12">
    <rdf:RDF>
      <cc:Work
         rdf:about="">
        <dc:format>image/svg+xml</dc:format>
        <dc:type
           rdf:resource="http://purl.org/dc/dcmitype/StillImage" />
        <dc:title />
      </cc:Work>
    </rdf:RDF>
  </metadata>
  <defs
     id="defs10" />
  <sodipodi:namedview
     pagecolor="#b5b5b5"
     bordercolor="#666666"
     borderopacity="1"
     objecttolerance="10"
     gridtolerance="10"
     guidetolerance="10"
     inkscape:pageopacity="0"
     inkscape:pageshadow="2"
     inkscape:window-width="1871"
     inkscape:window-height="1056"
     id="namedview8"
     showgrid="false"
     inkscape:zoom="7.9096882"
     inkscape:cx="44.937614"
     inkscape:cy="42.718535"
     inkscape:window-x="49"
     inkscape:window-y="24"
     inkscape:window-maximized="1"
     inkscape:current-layer="svg2" />
  <path
     style="fill:#000000"
     d="M 43.560547 1.8984375 C 39.704722 2.1054012 36.485181 5.9510136 37.644531 10.091797 C 38.177765 11.996332 40.093004 14.092485 41.736328 14.566406 C 45.166714 15.555702 48.325767 14.184526 49.755859 11.085938 C 51.305159 7.7290545 49.748759 3.8261074 46.285156 2.3789062 C 45.37372 1.9980838 44.450352 1.8506766 43.560547 1.8984375 z M 28.875 12.439453 C 25.128953 12.497403 21.143843 12.80809 20.189453 13.320312 C 19.636787 13.616931 17.48413 15.488452 15.40625 17.480469 C 11.793345 20.944078 11.627559 21.162657 11.630859 22.476562 C 11.634759 24.01594 12.274884 24.806704 13.888672 25.269531 C 14.832244 25.540142 15.123881 25.350681 18.804688 22.072266 L 22.716797 18.585938 L 24.892578 18.585938 C 26.089333 18.585938 27.068359 18.708548 27.068359 18.857422 C 27.068359 19.650524 16.525229 44.71209 15.78125 45.6875 C 14.269075 47.67006 9.7900014 50.223221 4.8925781 51.894531 C 4.5983331 51.994951 4.1642874 52.768372 3.9277344 53.613281 C 3.2156734 56.156491 4.4848883 58.177734 6.7929688 58.177734 C 9.485467 58.177734 15.593386 55.191384 19.695312 51.871094 L 22.474609 49.621094 L 24.158203 45.34375 C 25.084048 42.990971 25.956664 41.066406 26.097656 41.066406 C 26.238649 41.066406 28.213916 42.527093 30.486328 44.314453 C 32.758738 46.101813 34.653646 47.584675 34.697266 47.609375 C 34.740876 47.634055 33.812373 50.536224 32.634766 54.058594 C 30.506693 60.423935 30.496787 60.46873 31.085938 61.4375 C 31.411952 61.973601 32.189059 62.663563 32.8125 62.970703 C 34.395277 63.750424 35.241895 63.681507 36.439453 62.673828 C 38.503819 60.936787 41.076892 54.086955 41.851562 48.265625 L 42.236328 45.380859 L 38.34375 41.683594 C 36.202598 39.650504 34.449219 37.823167 34.449219 37.623047 C 34.449219 37.422937 35.895 33.986369 37.662109 29.986328 L 40.296875 24.023438 L 43.521484 26.908203 L 48.787109 26.753906 C 50.624379 26.700477 51.86498 26.643847 52.761719 26.539062 L 60.392578 28.373047 L 63.505859 15.414062 L 54.40625 13.226562 L 52.451172 21.355469 C 51.873203 21.373915 51.151641 21.427129 49.986328 21.544922 L 46.341797 21.914062 L 44.111328 20.21875 C 42.844926 19.258096 42.108694 18.218734 41.59375 17.25 L 41.59375 17.107422 C 41.5562 17.091872 41.52721 17.07804 41.490234 17.0625 C 41.473674 17.02986 41.451617 16.995331 41.435547 16.962891 L 41.386719 17.017578 C 40.634009 16.696983 39.984673 16.383747 39.425781 16.228516 C 38.177969 15.881937 36.126953 13.918934 36.126953 13.072266 C 36.126953 12.574806 32.621047 12.381504 28.875 12.439453 z "
     id="path4170" />
</svg>
