<?xml version="1.0" encoding="UTF-8" standalone="no"?>
<svg
   xmlns:dc="http://purl.org/dc/elements/1.1/"
   xmlns:cc="http://creativecommons.org/ns#"
   xmlns:rdf="http://www.w3.org/1999/02/22-rdf-syntax-ns#"
   xmlns:svg="http://www.w3.org/2000/svg"
   xmlns="http://www.w3.org/2000/svg"
   xmlns:sodipodi="http://sodipodi.sourceforge.net/DTD/sodipodi-0.dtd"
   xmlns:inkscape="http://www.inkscape.org/namespaces/inkscape"
   height="64"
   width="64"
   version="1.1"
   viewBox="0 0 64 64"
   id="svg2"
   inkscape:version="0.91 r13725"
   sodipodi:docname="team.svg">
  <metadata
     id="metadata12">
    <rdf:RDF>
      <cc:Work
         rdf:about="">
        <dc:format>image/svg+xml</dc:format>
        <dc:type
           rdf:resource="http://purl.org/dc/dcmitype/StillImage" />
        <dc:title />
      </cc:Work>
    </rdf:RDF>
  </metadata>
  <defs
     id="defs10" />
  <sodipodi:namedview
     pagecolor="#b5b5b5"
     bordercolor="#666666"
     borderopacity="1"
     objecttolerance="10"
     gridtolerance="10"
     guidetolerance="10"
     inkscape:pageopacity="0"
     inkscape:pageshadow="2"
     inkscape:window-width="1871"
     inkscape:window-height="1056"
     id="namedview8"
     showgrid="false"
     inkscape:zoom="3.6875"
     inkscape:cx="-17.220339"
     inkscape:cy="28.20339"
     inkscape:window-x="49"
     inkscape:window-y="24"
     inkscape:window-maximized="1"
     inkscape:current-layer="svg2" />
  <path
     inkscape:connector-curvature="0"
     style="fill:#000000"
     d="m 38.87537,21.402621 c -2.666316,0.143124 -4.892639,2.80237 -4.090945,5.665734 0.368733,1.316992 1.693128,2.766488 2.82949,3.094207 2.372123,0.684102 4.55662,-0.264072 5.545532,-2.406757 1.071347,-2.321294 -0.0049,-5.020194 -2.400002,-6.020938 -0.630261,-0.263341 -1.268773,-0.365272 -1.884075,-0.332246 z m -10.155103,7.289145 c -2.590403,0.04007 -5.346121,0.254915 -6.006083,0.609118 -0.382171,0.205113 -1.870741,1.499275 -3.3076,2.876762 -2.498336,2.395095 -2.612977,2.546245 -2.610696,3.454813 0.0026,1.064486 0.445345,1.611301 1.561285,1.931346 0.652482,0.187129 0.854151,0.05611 3.399441,-2.210917 l 2.705236,-2.410807 1.50456,0 c 0.82756,0 1.504559,0.08479 1.504559,0.187731 0,0.548432 -7.290609,17.878586 -7.805073,18.553084 -1.045673,1.370946 -4.142966,3.136466 -7.52955,4.292182 -0.203472,0.06944 -0.503615,0.604264 -0.667193,1.188521 -0.492392,1.758638 0.385274,3.156333 1.981319,3.156333 1.86187,0 6.085517,-2.065071 8.922012,-4.361062 l 1.921892,-1.55588 1.164211,-2.957797 c 0.640225,-1.626955 1.243641,-2.957798 1.341138,-2.957798 0.0975,0 1.463401,1.01007 3.034779,2.246035 1.57138,1.235964 2.881714,2.26137 2.911878,2.278449 0.03017,0.01709 -0.611906,2.023925 -1.426224,4.459655 -1.471571,4.401654 -1.47842,4.43263 -1.07102,5.102537 0.225439,0.370716 0.762812,0.847827 1.193923,1.060215 1.094495,0.539181 1.679934,0.491522 2.508048,-0.205291 1.427517,-1.201169 3.206805,-5.937848 3.742492,-9.963317 l 0.266067,-1.994826 -2.691731,-2.55667 c -1.480612,-1.405887 -2.693081,-2.669496 -2.693081,-2.80788 0,-0.138382 0.999763,-2.514776 2.221725,-5.280816 l 1.821948,-4.123356 2.229828,1.994823 3.641197,-0.106702 c 1.270477,-0.03694 2.128357,-0.0761 2.748455,-0.148564 l 5.276762,1.268206 2.152845,-8.96118 -6.292408,-1.512663 -1.351942,5.621167 c -0.399668,0.01273 -0.898631,0.04955 -1.70445,0.131007 l -2.520203,0.255261 -1.542376,-1.172314 C 38.380514,33.40688 37.871409,32.688158 37.515322,32.018275 l 0,-0.0986 c -0.02598,-0.01081 -0.04601,-0.02031 -0.07157,-0.03107 -0.01151,-0.02257 -0.02671,-0.04644 -0.03782,-0.06888 l -0.03377,0.03782 c -0.520501,-0.221692 -0.96952,-0.438297 -1.355994,-0.545639 -0.862867,-0.239662 -2.281151,-1.597083 -2.281151,-2.182556 0,-0.343996 -2.424345,-0.477667 -5.014748,-0.437594 z"
     id="path4170" />
  <path
     id="path4153"
     d="m 56.772333,2.1721701 c -1.187547,0.063749 -2.179129,1.2481466 -1.822062,2.5234586 0.164229,0.5865734 0.7541,1.2321642 1.260225,1.3781264 1.056518,0.3046913 2.029468,-0.1176176 2.46992,-1.0719437 C 59.157582,3.9679309 58.678216,2.7658698 57.61148,2.3201487 57.330769,2.2028547 57.046383,2.1574612 56.772333,2.1721701 Z M 52.24936,5.4186775 c -1.153738,0.017853 -2.381105,0.1135377 -2.675046,0.2712948 -0.170215,0.09135 -0.833207,0.6677621 -1.473168,1.281279 -1.112733,1.0667483 -1.163792,1.1340753 -1.162777,1.5387363 0.0012,0.474116 0.198353,0.717663 0.69538,0.860204 0.290609,0.08336 0.380429,0.025 1.514074,-0.98472 l 1.204883,-1.0737483 0.670115,0 c 0.368585,0 0.670115,0.03777 0.670115,0.08361 0,0.2442673 -3.24716,7.9629307 -3.476296,8.2633417 -0.465731,0.61061 -1.845233,1.396958 -3.35358,1.911695 -0.09062,0.03083 -0.224305,0.269135 -0.297162,0.529358 -0.219305,0.783279 0.171597,1.40579 0.882458,1.40579 0.829257,0 2.710426,-0.919758 3.973768,-1.942365 l 0.85599,-0.692979 0.518528,-1.317362 c 0.285149,-0.724633 0.553904,-1.317376 0.597328,-1.317376 0.04342,0 0.651784,0.449869 1.351659,1.000364 0.699876,0.550482 1.283484,1.007191 1.296918,1.014797 0.01347,0.0081 -0.272536,0.901435 -0.635224,1.986283 -0.655422,1.960446 -0.658472,1.974233 -0.47702,2.272611 0.10041,0.165116 0.339747,0.377611 0.531759,0.472205 0.487477,0.240149 0.748226,0.218916 1.117058,-0.09142 0.635802,-0.534985 1.428277,-2.644647 1.666866,-4.437555 l 0.118505,-0.888482 -1.198867,-1.138702 c -0.65945,-0.626171 -1.199471,-1.188966 -1.199471,-1.250602 0,-0.06166 0.445284,-1.120056 0.989533,-2.352019 l 0.811476,-1.8364994 0.993143,0.888469 1.621749,-0.04753 c 0.565857,-0.01646 0.947947,-0.03386 1.224133,-0.06616 L 61.9564,10.326043 62.915254,6.3348294 60.112683,5.6611056 59.510542,8.1647166 c -0.178007,0.0054 -0.400241,0.02205 -0.759144,0.05832 l -1.122471,0.113686 -0.686958,-0.522138 C 56.551932,7.5187233 56.325181,7.1986083 56.166585,6.9002493 l 0,-0.04392 c -0.01158,-0.0048 -0.02049,-0.009 -0.03188,-0.01384 -0.0051,-0.01006 -0.01185,-0.02069 -0.01684,-0.03068 l -0.01504,0.01684 C 55.870991,6.729927 55.671003,6.6334511 55.498872,6.5856404 55.114561,6.4788971 54.482871,5.8743171 54.482871,5.6135535 c 0,-0.1532119 -1.079776,-0.2127475 -2.233514,-0.194899 z"
     style="fill:#000000"
     inkscape:connector-curvature="0" />
  <path
     inkscape:connector-curvature="0"
     style="fill:#000000"
     d="m 20.947564,0.54688736 c -2.00159,0.10744257 -3.672878,2.10372484 -3.071052,4.25323804 0.276807,0.988659 1.271023,2.0767893 2.124084,2.3228055 1.780741,0.5135474 3.420631,-0.198237 4.163003,-1.8067401 C 24.967853,3.5736067 24.159934,1.5475564 22.36193,0.79630259 21.888797,0.59861399 21.409468,0.52209525 20.947564,0.54688736 Z M 13.32418,6.018812 C 11.379577,6.0488892 9.3108748,6.210175 8.8154449,6.4760737 8.5285508,6.6300517 7.4110888,7.6015715 6.3324467,8.635647 c -1.8754877,1.797981 -1.9615478,1.911458 -1.959836,2.593507 0.00196,0.7991 0.3343186,1.209591 1.1720487,1.449856 0.4898154,0.140481 0.6412064,0.04214 2.5519426,-1.659729 l 2.030806,-1.8097727 1.129465,0 c 0.621245,0 1.129467,0.06361 1.129467,0.140923 0,0.411709 -5.4730243,13.4213647 -5.8592293,13.9277157 -0.7849813,1.029154 -3.1101029,2.354526 -5.65239405,3.222116 -0.15274559,0.0521 -0.37806126,0.453619 -0.50085804,0.892211 -0.36963632,1.320202 0.28922247,2.369447 1.48736529,2.369447 1.3976968,0 4.5683664,-1.550242 6.6977078,-3.273829 l 1.4427543,-1.167984 0.873968,-2.220409 c 0.480613,-1.221344 0.933595,-2.220409 1.006785,-2.220409 0.07318,0 1.098568,0.758263 2.278193,1.686087 1.179627,0.927838 2.163288,1.697607 2.185932,1.710421 0.02265,0.01305 -0.459355,1.519354 -1.070659,3.347844 -1.104701,3.3043 -1.109842,3.327558 -0.804009,3.830453 0.169236,0.278286 0.572639,0.636452 0.896272,0.795894 0.821632,0.404759 1.261117,0.368988 1.88278,-0.154116 1.071628,-0.9017 2.407331,-4.457506 2.809468,-7.479411 l 0.199736,-1.497496 -2.020669,-1.919284 C 17.127995,20.144285 16.2178,19.195702 16.2178,19.091819 c 0,-0.10392 0.750518,-1.887832 1.667838,-3.964283 l 1.367727,-3.095382 1.673921,1.497497 2.733427,-0.0801 c 0.953741,-0.02775 1.597747,-0.05707 2.063252,-0.111506 l 3.961239,0.952051 1.616129,-6.7271268 -4.723679,-1.1355443 -1.014895,4.2197881 c -0.300029,0.0092 -0.674598,0.03717 -1.279523,0.0983 l -1.891902,0.191599 -1.157855,-0.880051 C 20.576079,9.5583799 20.193896,9.0188495 19.926584,8.5159666 l 0,-0.07408 c -0.01951,-0.00786 -0.03454,-0.015313 -0.05374,-0.023298 -0.0086,-0.017016 -0.02006,-0.034815 -0.02839,-0.051699 l -0.02535,0.028401 C 19.428377,8.2288725 19.0913,8.0662621 18.801177,7.98569 18.153426,7.8057769 17.088728,6.7867605 17.088728,6.3472486 c 0,-0.2582357 -1.819943,-0.3585819 -3.764545,-0.3284996 z"
     id="path4155" />
</svg>
